<svg width="123.000000" height="33.000000" viewBox="0 0 123 33" fill="none" xmlns="http://www.w3.org/2000/svg" xmlns:xlink="http://www.w3.org/1999/xlink">
	<desc>
			Created with Pixso.
	</desc>
	<defs>
		<filter id="filter_588_16_dd" x="0.000000" y="0.000000" width="123.000000" height="33.000000" filterUnits="userSpaceOnUse" color-interpolation-filters="sRGB">
			<feFlood flood-opacity="0" result="BackgroundImageFix"/>
			<feColorMatrix in="SourceAlpha" type="matrix" values="0 0 0 0 0 0 0 0 0 0 0 0 0 0 0 0 0 0 127 0" result="hardAlpha"/>
			<feOffset dx="0" dy="4"/>
			<feGaussianBlur stdDeviation="1.33333"/>
			<feComposite in2="hardAlpha" operator="out" k2="-1" k3="1"/>
			<feColorMatrix type="matrix" values="0 0 0 0 0 0 0 0 0 0 0 0 0 0 0 0 0 0 0.25 0"/>
			<feBlend mode="normal" in2="BackgroundImageFix" result="effect_dropShadow_1"/>
			<feBlend mode="normal" in="SourceGraphic" in2="effect_dropShadow_1" result="shape"/>
		</filter>
		<clipPath id="clip588_16">
			<rect id="Frame" width="115.000000" height="25.000000" transform="translate(4.000000 0.000000)" fill="white" fill-opacity="0"/>
		</clipPath>
	</defs>
	<g filter="url(#filter_588_16_dd)">
		<rect id="Frame" width="115.000000" height="25.000000" transform="translate(4.000000 0.000000)" fill="#FFFFFF" fill-opacity="0"/>
		<g clip-path="url(#clip588_16)">
			<path id="Vector" d="M28.9219 9.84247C27.6641 9.84247 26.6562 10.7775 26.6562 12.0078C26.6562 13.2381 27.6641 14.1732 28.9219 14.1732C30.1797 14.1732 31.1875 13.2381 31.1875 12.0078C31.1367 10.8267 30.1289 9.84247 28.9219 9.84247Z" fill="#7D7D7D" fill-opacity="1.000000" fill-rule="nonzero"/>
			<path id="Vector" d="M56.0625 7.18491C55.3086 4.28136 53.4961 2.26365 50.6758 1.13176C49.4648 0.639633 48.1562 0.491993 46.8984 0.442783C44.9336 0.39357 42.9219 0.39357 40.957 0.442783C40.5547 0.442783 40.5547 0.442783 40.5547 0.836483C40.5547 3.83845 40.5547 6.79121 40.5547 9.79317C40.5547 12.7951 40.5547 15.7971 40.5547 18.7991C40.5547 18.8975 40.5547 18.9467 40.5547 19.0451C40.5547 19.1436 40.6055 19.1436 40.6562 19.1436C40.7578 19.1436 40.8047 19.1436 40.9062 19.1436C41.2578 19.1436 41.5625 19.1436 41.9141 19.1436L44.8359 19.1436C44.8867 19.1436 44.9336 19.1436 44.9844 19.1436C46.2461 19.1436 47.8555 19.0944 48.3594 19.0451C49.668 18.8975 50.9258 18.553 52.0352 17.864C54.9062 16.1416 56.3125 13.5333 56.5156 10.2853C56.5156 9.25184 56.3633 8.21837 56.0625 7.18491ZM51.1289 13.2381C50.2734 14.4192 49.0625 15.1573 47.6055 15.3542C47.25 15.4034 45.7422 15.4034 44.6328 15.4034C44.6328 11.8109 44.6328 8.21837 44.6328 4.57664C44.6328 4.52743 44.6328 4.429 44.6328 4.37979C44.6328 4.08451 44.6328 4.08451 44.9336 4.08451C45.3398 4.08451 45.7422 4.13373 46.1445 4.13373C46.7461 4.18294 47.3516 4.18294 47.957 4.33058C50.625 4.87192 52.0859 6.88963 52.2852 9.15341C52.4375 10.7282 52.0352 12.057 51.1289 13.2381Z" fill="#7D7D7D" fill-opacity="1.000000" fill-rule="nonzero"/>
			<path id="Vector" d="M16.5391 15.4036L14.1719 15.4036C14.0703 15.4036 14.0195 15.4036 13.918 15.4036C13.6172 15.4036 13.2656 15.4036 12.9609 15.3544C10.043 14.8623 8.33203 12.6477 8.12891 10.3347C8.02734 8.75993 8.42969 7.38197 9.48828 6.20087C10.4961 5.06898 11.8047 4.47843 13.3672 4.33079C14.0195 4.28158 14.7266 4.28158 15.3789 4.18315C16.5391 4.03551 17.3945 3.44496 17.8477 2.4115C18.0977 1.87016 18.25 1.2304 18.3984 0.689056C18.4492 0.54142 18.3984 0.492207 18.25 0.492207C18.1992 0.492207 18.1484 0.492207 18.0977 0.492207C16.5859 0.492207 15.1289 0.492207 13.6172 0.492207C12.6602 0.492207 11.6523 0.639843 10.6445 0.984333C8.23047 1.77174 6.36719 3.14969 5.16016 5.41347C4.60547 6.49614 4.20312 7.62804 4.05078 8.80914C3.94922 9.69496 3.94922 10.63 4.15234 11.5158C4.60547 13.632 5.61328 15.4528 7.27344 16.88C9.08594 18.4056 11.1992 19.1438 13.5664 19.2422C14.5234 19.2914 15.4805 19.2914 16.4375 19.2914L16.5391 19.2914C17.5938 19.2914 18.5 18.4056 18.5 17.3721C18.5 16.2402 17.6445 15.4036 16.5391 15.4036Z" fill="#7D7D7D" fill-opacity="1.000000" fill-rule="nonzero"/>
			<path id="Vector" d="M37.0273 7.08649C37.0273 6.39751 36.9297 5.70854 36.7773 5.01956C36.2734 3.00184 35.1172 1.52547 33.2031 0.68885C32.3477 0.295151 31.4414 0.147514 30.4844 0.0983009C30.4336 0.0983009 30.3828 0.0983009 30.332 0.0983009L27.4609 0.0983009C27.4102 0.0983009 27.3633 0.0983009 27.3125 0.0983009C26.3555 0.0983009 25.4492 0.295151 24.5938 0.68885C22.6797 1.57468 21.4688 3.05106 21.0156 5.01956C20.8672 5.70854 20.7656 6.39751 20.7656 7.08649C20.7656 11.0235 20.7656 14.9605 20.7656 18.8483C20.7656 18.8975 20.7656 18.9467 20.7656 18.9959C20.7656 19.0944 20.8164 19.1928 20.918 19.1928C20.9688 19.1928 21.0156 19.1928 21.0664 19.1928C22.2266 19.1928 23.3828 19.1928 24.543 19.1928C24.5938 19.1928 24.6445 19.1928 24.6914 19.1928C24.793 19.1928 24.8438 19.1436 24.8438 19.0452L24.8438 6.44673C24.8438 4.97035 26.1016 3.74003 27.6133 3.74003L30.082 3.74003C30.7852 3.74003 31.4414 3.9861 31.8945 4.42901C31.9453 4.42901 31.9453 4.47822 31.9922 4.47822C32.043 4.52744 32.0938 4.57665 32.1445 4.62586C32.1953 4.67507 32.1953 4.72429 32.2461 4.7735C32.5977 5.21641 32.8516 5.80696 32.8516 6.44673L32.8516 12.7459C32.8516 14.7637 32.8516 16.7814 32.8516 18.7991L32.8516 19.0452C32.8516 19.1436 32.8984 19.242 33 19.242C33.0508 19.242 33.1016 19.242 33.1523 19.242C34.3086 19.242 35.4688 19.242 36.625 19.242C36.6758 19.242 36.7266 19.242 36.7773 19.242C36.9297 19.242 36.9297 19.1928 36.9297 19.0452C36.9297 18.9959 36.9297 18.9467 36.9297 18.8975C37.0273 14.9605 37.0273 11.0235 37.0273 7.08649Z" fill="#7D7D7D" fill-opacity="1.000000" fill-rule="nonzero"/>
			<path id="Vector" d="M70.6133 7.13579C70.1094 6.74209 69.5547 6.44682 68.9492 6.24997C66.332 5.31493 63.9141 5.65942 61.8008 7.38186C59.9375 8.90745 59.1836 10.9252 59.4336 13.2874C59.6367 15.3543 60.5898 16.9783 62.3047 18.1594C63.8633 19.2421 65.5781 19.5866 67.4375 19.3405C69.2031 19.0945 70.7109 18.3563 71.9219 17.0767C72.1211 16.8307 72.1211 16.8799 71.9219 16.6338C71.1133 15.6496 69.6562 15.2559 68.4453 15.6496C68.2461 15.6988 68.043 15.7972 67.793 15.8464C66.2305 16.3386 64.9219 15.9448 63.7656 14.813C63.7148 14.7637 63.6133 14.6653 63.6133 14.5177C63.6641 14.5177 63.7148 14.5177 63.7148 14.4685C66.6836 13.7795 69.707 13.1397 72.6758 12.4508C72.9766 12.4015 72.9766 12.4015 72.9766 12.0571C72.9766 11.5157 72.9258 11.0236 72.7773 10.4822C72.4727 9.15351 71.8203 7.97241 70.6133 7.13579ZM69.2539 11.1712C68.043 11.4665 66.8867 11.7126 65.6758 12.0078C64.8203 12.2047 63.9141 12.4015 63.0586 12.5984C63.0078 12.5984 62.957 12.6476 62.9062 12.5984C62.8594 12.2539 62.9062 11.9586 63.0078 11.6141C63.3125 10.433 64.0156 9.54721 65.2227 9.20272C65.8789 9.00587 66.6328 8.95666 67.2891 9.10429C68.3477 9.30115 69 9.99013 69.3516 10.9744C69.5039 11.122 69.4023 11.122 69.2539 11.1712Z" fill="#464646" fill-opacity="1.000000" fill-rule="nonzero"/>
			<path id="Vector" d="M119 12.3032C119 11.6634 119 11.0237 118.953 10.3839C118.801 8.56305 117.895 7.1851 116.184 6.34848C114.922 5.70872 113.512 5.61029 112.152 5.85635C109.738 6.29927 107.977 8.16935 107.926 10.5808C107.875 11.9095 107.875 13.2382 107.926 14.567C107.926 15.9941 107.926 17.3721 107.926 18.7993C107.926 19.0453 107.926 19.0453 108.176 19.0453C109.133 19.0453 110.09 19.0453 111.047 19.0453C111.449 19.0453 111.398 19.0945 111.398 18.7008C111.398 16.3878 111.398 14.0749 111.398 11.7619C111.398 11.2697 111.449 10.7776 111.602 10.2855C111.801 9.64572 112.203 9.20281 112.91 9.05518C113.16 9.00596 113.414 9.00596 113.664 9.00596C114.469 9.05518 114.973 9.49809 115.176 10.2363C115.324 10.7284 115.375 11.1713 115.375 11.6634C115.375 13.9764 115.375 16.2894 115.375 18.6516C115.375 19.0453 115.324 18.9961 115.73 18.9961C116.684 18.9961 117.691 18.9961 118.648 18.9961C118.953 18.9961 118.953 19.0453 118.953 18.7008C118.953 18.6516 118.953 18.6516 118.953 18.6024C119 16.5847 119 14.4193 119 12.3032Z" fill="#464646" fill-opacity="1.000000" fill-rule="nonzero"/>
			<path id="Vector" d="M82.9492 12.5494C82.5469 12.2541 82.1445 12.0081 81.7422 11.762C81.2383 11.5159 80.6836 11.2699 80.1797 11.0238C79.8789 10.8762 79.5781 10.7285 79.2734 10.5809C79.0742 10.4825 78.8711 10.3348 78.7188 10.138C78.4688 9.7935 78.5703 9.35059 78.9219 9.15374C79.1719 9.0061 79.4258 8.95689 79.6758 9.0061C79.9297 9.05531 80.1289 9.15374 80.332 9.25216C80.8359 9.54744 81.3906 9.7935 81.8906 10.0396C82.4453 10.2856 83.0508 10.384 83.6562 10.2364C84.207 10.0888 84.1562 10.1872 84.0586 9.64587C84.0586 9.59665 84.0586 9.59665 84.0586 9.54744C83.7031 8.07106 82.8984 7.03759 81.4375 6.49626C80.2305 6.05334 78.9727 5.95492 77.7148 6.29941C76.4531 6.59468 75.5469 7.33287 75.1445 8.56319C74.9453 9.15374 74.9453 9.7935 75.043 10.4333C75.1445 11.2207 75.5469 11.762 76.2031 12.2541C76.4023 12.4018 76.6562 12.5494 76.9062 12.6478C77.5625 12.9431 78.2188 13.2876 78.8711 13.5829C79.3242 13.7797 79.7266 14.0258 80.1289 14.3211C80.4844 14.5671 80.582 14.9116 80.4844 15.3053C80.3828 15.7482 80.1289 16.0435 79.6758 16.1419C79.0742 16.2896 78.5195 16.1911 78.0664 15.8466C77.8125 15.699 77.6133 15.5022 77.3594 15.4037C76.5039 14.8624 75.2461 15.0592 74.543 15.7974C74.3398 15.9943 74.2891 16.1911 74.3906 16.4372C74.6406 16.9785 74.9453 17.4215 75.3984 17.8152C76.5547 18.7502 77.8633 19.2915 79.375 19.2915C80.4844 19.2915 81.4883 18.9963 82.4453 18.5533C83.0508 18.2581 83.5039 17.8152 83.8555 17.2246C84.2578 16.4864 84.4102 15.699 84.3086 14.9116C84.1562 13.8781 83.7539 13.0907 82.9492 12.5494Z" fill="#464646" fill-opacity="1.000000" fill-rule="nonzero"/>
			<path id="Vector" d="M90.3008 7.52978C90.3008 7.13607 90.3008 6.69316 90.3008 6.29946C90.3008 6.10261 90.3008 6.0534 90.0508 6.0534C89.4453 6.0534 88.8906 6.0534 88.2891 6.0534C87.8359 6.0534 87.4297 6.0534 86.9766 6.0534C86.7266 6.0534 86.7266 6.0534 86.7266 6.29946C86.7266 6.34867 86.7266 6.39789 86.7266 6.4471C86.7266 8.46482 86.7266 10.5317 86.7266 12.5495C86.7266 14.6164 86.7266 16.6833 86.7266 18.7995C86.7266 19.0947 86.7266 19.0947 87.0273 19.0947C87.9844 19.0947 88.9414 19.0947 89.8984 19.0947C90.3008 19.0947 90.25 19.144 90.25 18.701C90.3008 14.9609 90.3008 11.2699 90.3008 7.52978Z" fill="#464646" fill-opacity="1.000000" fill-rule="nonzero"/>
			<path id="Vector" d="M88.4883 0.000137329C87.2305 0.0493507 86.2734 0.98439 86.2734 2.16549C86.2734 3.39581 87.2812 4.33084 88.4883 4.33084C89.7461 4.33084 90.7539 3.34659 90.7539 2.16549C90.8047 0.98439 89.7461 -0.0490761 88.4883 0.000137329Z" fill="#464646" fill-opacity="1.000000" fill-rule="nonzero"/>
			<path id="Vector" d="M105.758 15.7481C105.758 15.0591 105.758 14.3701 105.758 13.6811C105.758 13.4843 105.758 13.2382 105.758 13.0414C105.758 12.5984 105.707 12.2048 105.707 11.7618C105.707 11.565 105.656 11.3189 105.605 11.1221C105.305 9.25199 104.398 7.82483 102.938 6.88979C102.434 6.59451 101.93 6.29924 101.324 6.10239C101.023 6.00396 100.723 5.90553 100.418 5.85632C99.5117 5.65947 98.5547 5.70868 97.5977 5.85632C96.9961 5.95475 96.4414 6.10239 95.9375 6.34845C95.7852 6.44687 95.5859 6.49609 95.4336 6.59451C94.7812 6.98821 94.2266 7.48034 93.7734 8.07089C92.7656 9.39963 92.3125 10.8268 92.3125 12.3524C92.3125 12.8445 92.3633 13.3858 92.4648 13.878C92.5625 14.5177 92.7656 15.1083 93.0156 15.6496C93.4219 16.437 93.9219 17.126 94.6289 17.6673C95.332 18.2087 96.1406 18.6024 97.1445 18.8977C97.4492 18.9961 97.8008 19.0453 98.1016 19.0945C98.3555 19.1437 98.6055 19.1437 98.9102 19.1437C100.367 19.1437 101.629 18.6024 102.281 17.815C102.281 18.1103 102.281 18.4055 102.281 18.7008C102.281 18.8484 102.281 18.9961 102.23 19.1437C102.129 19.7343 101.879 20.2264 101.527 20.6201C101.324 20.817 101.125 20.9646 100.922 21.1122C100.672 21.2599 100.418 21.3583 100.117 21.4567C99.9141 21.5059 99.7148 21.5551 99.5117 21.6044C99.1094 21.7028 98.707 21.7028 98.3047 21.7028C98.1016 21.7028 97.9023 21.7028 97.6992 21.6536C97.2969 21.6044 96.8438 21.5551 96.4414 21.5059C96.0391 21.4567 95.6367 21.3583 95.1836 21.3091C95.1328 21.3091 95.0312 21.3091 95.0312 21.3091C94.9805 21.3091 94.9805 21.3583 94.9297 21.4567C94.8281 21.752 94.7812 22.0473 94.6797 22.3918C94.5781 22.8347 94.4258 23.2284 94.3281 23.6713C94.2773 23.8189 94.2266 24.0158 94.1758 24.1634C94.1758 24.2126 94.1758 24.2618 94.1758 24.2618C94.1758 24.3603 94.2266 24.4095 94.3281 24.4095C94.375 24.4095 94.375 24.4095 94.4258 24.4587C95.2344 24.7048 95.9883 24.9016 96.793 25C98.1016 25.1477 99.4609 25.1477 100.77 24.8524C101.777 24.6555 102.734 24.311 103.59 23.6713C103.945 23.376 104.246 23.0807 104.496 22.7855C105.305 21.8504 105.707 20.6693 105.805 19.3898L105.805 19.3406C105.758 18.1103 105.707 16.9292 105.758 15.7481ZM99.0586 15.7973C98.707 15.7973 98.4062 15.7481 98.1016 15.6988C97.0977 15.4528 96.3398 14.813 96.0391 13.7795C95.8867 13.2382 95.8359 12.6969 95.8359 12.2048C95.8359 12.0079 95.8867 11.8603 95.8867 11.6634C95.9375 11.4666 95.9375 11.2697 96.0391 11.1221C96.3906 9.99018 97.3477 9.20278 98.5039 9.10435C98.707 9.10435 98.957 9.10435 99.1602 9.10435L99.2109 9.10435C99.4102 9.10435 99.6133 9.15356 99.8164 9.20278L99.8633 9.20278C100.066 9.25199 100.219 9.35042 100.418 9.39963C100.418 9.39963 100.469 9.39963 100.469 9.44884C100.621 9.54726 100.77 9.64569 100.922 9.74412L100.973 9.79333C101.125 9.89175 101.273 10.0394 101.375 10.187C101.375 10.187 101.375 10.2362 101.426 10.2362C101.527 10.3839 101.676 10.5315 101.727 10.7284C101.727 10.7284 101.727 10.7284 101.727 10.7776C101.828 10.9744 101.879 11.1221 101.98 11.3189C102.031 11.5158 102.082 11.7126 102.129 11.9587C102.129 12.0571 102.129 12.1555 102.129 12.254C102.129 13.0414 102.129 13.7795 102.18 14.567C101.527 15.3051 100.367 15.7973 99.0586 15.7973Z" fill="#464646" fill-opacity="1.000000" fill-rule="nonzero"/>
		</g>
	</g>
</svg>
